# Blender 3.6.5
# www.blender.org
mtllib HexfenceHalf.mtl
o HexFenceHalf
v -0.030000 0.000000 0.500000
v 0.030000 0.000000 0.500000
v 0.000000 0.927058 0.500000
v 0.030000 0.907471 0.500000
v -0.030000 0.907471 0.500000
v -0.030000 0.000000 0.000000
v 0.030000 0.000000 0.000000
v 0.000000 0.927058 0.000000
v 0.030000 0.907471 0.000000
v -0.030000 0.907471 0.000000
vn 0.5467 0.8373 -0.0000
vn 1.0000 -0.0000 -0.0000
vn -1.0000 -0.0000 -0.0000
vn -0.5467 0.8373 -0.0000
vt 0.500000 0.907471
vt 0.500000 1.000000
vt 0.000000 1.000000
vt 0.000000 0.907471
vt 0.500000 0.000000
vt 0.000000 0.000000
s 0
usemtl Hexagongripd
f 9/1/1 8/2/1 3/3/1 4/4/1
f 7/5/2 9/1/2 4/4/2 2/6/2
f 1/6/3 5/4/3 10/1/3 6/5/3
f 5/4/4 3/3/4 8/2/4 10/1/4
